Coordinates
nRows=17
nColumns=24

# SIMM Motion File Header:
name Coordinates
datacolumns 24
datarows 17
otherdata 1
range 0.51700000000000002000 0.53300000000000003000
endheader
time	pelvis_tx	pelvis_ty	pelvis_tz	pelvis_tilt	pelvis_list	pelvis_rotation	hip_flexion_r	hip_adduction_r	hip_rotation_r	knee_angle_r	ankle_angle_r	subtalar_angle_r	mtp_angle_r	hip_flexion_l	hip_adduction_l	hip_rotation_l	knee_angle_l	ankle_angle_l	subtalar_angle_l	mtp_angle_l	lumbar_extension	lumbar_bending	lumbar_rotation
      0.51700000000000002000	      1.94756490882277910000	      0.83520586005558539000	     -0.23703882623141398000	     -4.44811586311408470000	      4.83276622091346300000	     -1.24733125051074940000	    -14.46601245404045600000	     -6.03694797424577520000	      0.23084984663509903000	    -26.92990104671948600000	    -19.58497342049444600000	     -0.00000000000014922597	      0.00000000000024493166	     30.85532172433265100000	      5.80462149376201180000	     10.63331107766639900000	    -22.24836645777633800000	     -4.11112798112583010000	      0.00000000000001310454	     -0.00000000000006259725	     -3.41094585815551410000	     -7.62945112452207040000	      7.13770434691418030000
      0.51800000000000002000	      1.94935131015203770000	      0.83527196720129893000	     -0.23722463576185551000	     -4.44838196663812370000	      4.88594930264715100000	     -1.20703529321925140000	    -14.34360464251892800000	     -6.12457926444137610000	      0.20854274103553536000	    -27.25146468655462300000	    -19.91664870370753000000	     -0.00000000000014967495	      0.00000000000024593355	     30.83107413802694200000	      5.92227073023249330000	     10.70849189839891800000	    -22.43735787077077100000	     -4.01597492717511080000	      0.00000000000001301052	     -0.00000000000006282228	     -3.40600633087139440000	     -7.67853735576895340000	      7.09733599333268470000
      0.51900000000000002000	      1.95113771148129640000	      0.83533807434701246000	     -0.23741044529229705000	     -4.44864807016216180000	      4.93913238438083990000	     -1.16673933592775310000	    -14.22119683099739800000	     -6.21221055463697610000	      0.18623563543597169000	    -27.57302832638976400000	    -20.24832398692061400000	     -0.00000000000015012394	      0.00000000000024693543	     30.80682655172123300000	      6.03991996670297480000	     10.78367271913143600000	    -22.62634928376520400000	     -3.92082187322439160000	      0.00000000000001291651	     -0.00000000000006304732	     -3.40106680358727420000	     -7.72762358701583720000	      7.05696763975118910000
      0.52000000000000002000	      1.95291887635335830000	      0.83540901589395944000	     -0.23759652564692268000	     -4.44775260886992550000	      4.99305754687214520000	     -1.12572445955167160000	    -14.09710507196703400000	     -6.30057419538415520000	      0.16432011869628108000	    -27.89674397626544800000	    -20.57406889169775600000	     -0.00000000000015058176	      0.00000000000024794922	     30.77832421876728800000	      6.15802626529347740000	     10.85517146903282900000	    -22.81003848670285100000	     -3.81954654044391840000	      0.00000000000001284231	     -0.00000000000006335383	     -3.39837215638722960000	     -7.77737399790590890000	      7.01540559297111610000
      0.52100000000000002000	      1.95469829573968810000	      0.83548156890798442000	     -0.23778269627627638000	     -4.44646995930559990000	      5.04723006961598840000	     -1.08446994348072990000	    -13.97245199710039600000	     -6.38918195298185850000	      0.14253513157654760000	    -28.22117696282131400000	    -20.89783700366292200000	     -0.00000000000015104254	      0.00000000000024896697	     30.74840363693060400000	      6.27628491792398520000	     10.92544286199051700000	    -22.99196028628824000000	     -3.71623044805353550000	      0.00000000000001277473	     -0.00000000000006368750	     -3.39642580254854030000	     -7.82734580201037660000	      6.97344564845818570000
      0.52200000000000002000	      1.95647042541350750000	      0.83556029134585719000	     -0.23796792220720381000	     -4.44391928853471100000	      5.10207503863347790000	     -1.04296677381506500000	    -13.84495752585365100000	     -6.47847739335184870000	      0.12222007128686616000	    -28.54872320319174200000	    -21.21231329540084300000	     -0.00000000000015154946	      0.00000000000025018435	     30.71285069838777900000	      6.39423289094153360000	     10.98988307543854700000	    -23.16619181746976300000	     -3.60398696563532050000	      0.00000000000001270398	     -0.00000000000006406452	     -3.39704692312448840000	     -7.87785361577309210000	      6.93043962341951490000
      0.52300000000000002000	      1.95824255508732680000	      0.83563901378372996000	     -0.23815314813813127000	     -4.44136861776382120000	      5.15692000765096740000	     -1.00146360414940010000	    -13.71746305460690800000	     -6.56777283372183800000	      0.10190501099718488000	    -28.87626944356216900000	    -21.52678958713876200000	     -0.00000000000015205638	      0.00000000000025140173	     30.67729775984495100000	      6.51218086395908100000	     11.05432328888657900000	    -23.34042334865128500000	     -3.49174348321710410000	      0.00000000000001263323	     -0.00000000000006444154	     -3.39766804370043650000	     -7.92836142953580760000	      6.88743359838084410000
      0.52400000000000002000	      1.96001022697506790000	      0.83572087000743012000	     -0.23833703086350944000	     -4.43851160181983670000	      5.21212316182361950000	     -0.96022652146564991000	    -13.58757525129064400000	     -6.65743076246345300000	      0.08305158460037939700	    -29.20613811044629300000	    -21.83229651432639400000	     -0.00000000000015256989	      0.00000000000025266104	     30.63860404835727300000	      6.62951887654047840000	     11.11481459290459600000	    -23.50923546881640300000	     -3.37501039057507500000	      0.00000000000001257583	     -0.00000000000006483051	     -3.39921226416739410000	     -7.97915609584269790000	      6.84411239627649870000
      0.52500000000000002000	      1.96177344107673090000	      0.83580586001695789000	     -0.23851957038333840000	     -4.43534824070275850000	      5.26768450115143330000	     -0.91925552576381420000	    -13.45529411590486600000	     -6.74745117957669200000	      0.06565979209644873200	    -29.53832920384411100000	    -22.12883407696373800000	     -0.00000000000015308997	      0.00000000000025396230	     30.59676956392474500000	      6.74624692868572500000	     11.17135698749260300000	    -23.67262817796512000000	     -3.25378768770923530000	      0.00000000000001253179	     -0.00000000000006523143	     -3.40167958452536070000	     -8.03023761469376220000	      6.80047601710647860000
      0.52600000000000002000	      1.96353665517839390000	      0.83589085002648555000	     -0.23870210990316737000	     -4.43218487958568020000	      5.32324584047924800000	     -0.87828453006197893000	    -13.32301298051908500000	     -6.83747159668993110000	      0.04826799959251965000	    -29.87052029724192800000	    -22.42537163960107400000	     -0.00000000000015361006	      0.00000000000025526355	     30.55493507949221800000	      6.86297498083097060000	     11.22789938208060600000	    -23.83602088711382900000	     -3.13256498484339250000	      0.00000000000001248775	     -0.00000000000006563235	     -3.40414690488332820000	     -8.08131913354482560000	      6.75683963793645770000
      0.52700000000000002000	      1.96529062684936640000	      0.83598168637515990000	     -0.23888112138622680000	     -4.42888767248632840000	      5.37951071686697180000	     -0.83825540702248613000	    -13.18513362108597200000	     -6.92813870436627610000	      0.03443851455605036200	    -30.20785821949959500000	    -22.69894016056722900000	     -0.00000000000015409545	      0.00000000000025649498	     30.50697488820912500000	      6.97806246767030030000	     11.27613403813398200000	    -23.98746259409746200000	     -3.00465103145279680000	      0.00000000000001242625	     -0.00000000000006607866	     -3.40782668781948010000	     -8.13295746564624620000	      6.71268045536184840000
      0.52800000000000002000	      1.96704459852033890000	      0.83607252272383425000	     -0.23906013286928623000	     -4.42559046538697580000	      5.43577559325469560000	     -0.79822628398299333000	    -13.04725426165285800000	     -7.01880581204262110000	      0.02060902951958107000	    -30.54519614175726300000	    -22.97250868153338000000	     -0.00000000000015458085	      0.00000000000025772640	     30.45901469692603300000	      7.09314995450963080000	     11.32436869418736000000	    -24.13890430108109400000	     -2.87673707806220150000	      0.00000000000001236475	     -0.00000000000006652498	     -3.41150647075563200000	     -8.18459579774766690000	      6.66852127278723920000
      0.52900000000000003000	      1.96879455533235670000	      0.83616597596901665000	     -0.23923755464610519000	     -4.42219956675675090000	      5.49233697886223560000	     -0.75864296831215772000	    -12.90701786227809400000	     -7.10972240327238670000	      0.00834076077379006760	    -30.88462106836692900000	    -23.23597428966542800000	     -0.00000000000015507780	      0.00000000000025900189	     30.40838854255658700000	      7.20750787714409570000	     11.36908296695374800000	    -24.28520003601875700000	     -2.74670935237062740000	      0.00000000000001228623	     -0.00000000000006698719	     -3.41573741992882680000	     -8.23645610773652240000	      6.62406014563411990000
      0.53000000000000003000	      1.97054049728541990000	      0.83626204611070720000	     -0.23941338671668369000	     -4.41871497659565370000	      5.54919487368959260000	     -0.71950546000997795000	    -12.76442442296168000000	     -7.20088847805557290000	     -0.00236629168132715700	    -31.22613299932858800000	    -23.48933698496340100000	     -0.00000000000015558630	      0.00000000000026032144	     30.35509642510079700000	      7.32113623557369750000	     11.41027685643315700000	    -24.42634979891046900000	     -2.61456785437808130000	      0.00000000000001219069	     -0.00000000000006746529	     -3.42051953533906430000	     -8.28853839561281450000	      6.57929707390249070000
      0.53100000000000003000	      1.97228027364125590000	      0.83636205763966609000	     -0.23958689091907581000	     -4.41516100446612110000	      5.60644200507505270000	     -0.68098883561709234000	    -12.61824103954258000000	     -7.29232807802744980000	     -0.01078514164680113000	    -31.57047650407621800000	    -23.72804163543554500000	     -0.00000000000015607394	      0.00000000000026155691	     30.29796514253767700000	      7.43366757229171600000	     11.44639766284993600000	    -24.56000675641266200000	     -2.48008375982676820000	      0.00000000000001209148	     -0.00000000000006800079	     -3.42605276278198590000	     -8.34086459842769120000	      6.53388135754563230000
      0.53200000000000003000	      1.97401799479801630000	      0.83646338296438127000	     -0.23975961916540581000	     -4.41158390501377620000	      5.66381888197988200000	     -0.64267917252730511000	    -12.47086100808924800000	     -7.38385885306222440000	     -0.01844125744905989600	    -31.91576386675250600000	    -23.96186027096574400000	     -0.00000000000015655463	      0.00000000000026276435	     30.23955413827210800000	      7.54583323510587340000	     11.48082744157916900000	    -24.69116611211834900000	     -2.34481879975586470000	      0.00000000000001199104	     -0.00000000000006855542	     -3.43183636090246980000	     -8.39327210622209740000	      6.48824809298036340000
      0.53300000000000003000	      1.97575322992903260000	      0.83656609755818634000	     -0.23993153570009756000	     -4.40812743674838890000	      5.72125728277868980000	     -0.60450813390846447000	    -12.32194770686176000000	     -7.47535620059621040000	     -0.02526079440092969500	    -32.26209488038226400000	    -24.18933635394332900000	     -0.00000000000015702466	      0.00000000000026391725	     30.17980986582692500000	      7.65753377583076760000	     11.51356301729085600000	    -24.81939371754939200000	     -2.20901263036125070000	      0.00000000000001188697	     -0.00000000000006912366	     -3.43775802516557770000	     -8.44566135706614670000	      6.44220505376661290000
